<?xml version="1.0" encoding="UTF-8"?>
<svg height="16px" viewBox="0 0 16 16" width="16px" xmlns="http://www.w3.org/2000/svg">
    <path d="m 1.839844 2.25 c -0.421875 0 -0.765625 0.363281 -0.765625 0.8125 v 10.191406 c 0 0.449219 0.34375 0.8125 0.765625 0.8125 h 10.671875 c 0.421875 0 0.761719 -0.363281 0.761719 -0.8125 v -10.191406 c 0 -0.449219 -0.339844 -0.8125 -0.761719 -0.8125 z m 0.332031 0.886719 h 9.992187 c 0.140626 0 0.25 0.125 0.25 0.285156 v 9.480469 c 0 0.15625 -0.109374 0.285156 -0.25 0.285156 h -9.992187 c -0.136719 0 -0.25 -0.128906 -0.25 -0.285156 v -9.480469 c 0 -0.160156 0.113281 -0.285156 0.25 -0.285156 z m 0 0"/>
    <path d="m 2.480469 1.753906 c 0.171875 0 0.3125 0.265625 0.3125 0.589844 c 0 0.328125 -0.140625 0.59375 -0.3125 0.59375 s -0.3125 -0.265625 -0.3125 -0.59375 c 0 -0.324219 0.140625 -0.589844 0.3125 -0.589844 z m 0 0"/>
    <path d="m 2.402344 1.070312 h 0.273437 c 0.148438 0 0.265625 0.132813 0.265625 0.300782 v 1.121094 c 0 0.167968 -0.117187 0.300781 -0.265625 0.300781 h -0.273437 c -0.144532 0 -0.261719 -0.132813 -0.261719 -0.300781 v -1.121094 c 0 -0.167969 0.117187 -0.300782 0.261719 -0.300782 z m 0 0"/>
    <path d="m 5.601562 1.0625 h 0.273438 c 0.144531 0 0.261719 0.136719 0.261719 0.300781 v 1.121094 c 0 0.167969 -0.117188 0.304687 -0.261719 0.304687 h -0.273438 c -0.148437 0 -0.265624 -0.136718 -0.265624 -0.304687 v -1.121094 c 0 -0.164062 0.117187 -0.300781 0.265624 -0.300781 z m 0 0"/>
    <path d="m 13.007812 12.511719 h 1.679688 c 0.238281 0 0.433594 0.167969 0.433594 0.375 v 0.121093 c 0 0.207032 -0.195313 0.371094 -0.433594 0.371094 h -1.679688 c -0.238281 0 -0.433593 -0.164062 -0.433593 -0.371094 v -0.121093 c 0 -0.207031 0.195312 -0.375 0.433593 -0.375 z m 0 0"/>
    <path d="m 15.183594 3.320312 v 9.65625 c 0 0.214844 -0.164063 0.390626 -0.371094 0.390626 h -0.121094 c -0.207031 0 -0.371094 -0.175782 -0.371094 -0.390626 v -9.65625 c 0 -0.21875 0.164063 -0.394531 0.371094 -0.394531 h 0.121094 c 0.207031 0 0.371094 0.175781 0.371094 0.394531 z m 0 0"/>
    <path d="m 8.679688 1.050781 h 0.273437 c 0.148437 0 0.265625 0.136719 0.265625 0.300781 v 1.121094 c 0 0.167969 -0.117188 0.300782 -0.265625 0.300782 h -0.273437 c -0.144532 0 -0.261719 -0.132813 -0.261719 -0.300782 v -1.121094 c 0 -0.164062 0.117187 -0.300781 0.261719 -0.300781 z m 0 0"/>
    <path d="m 11.773438 1.054688 h 0.273437 c 0.144531 0 0.261719 0.132812 0.261719 0.300781 v 1.121093 c 0 0.167969 -0.117188 0.300782 -0.261719 0.300782 h -0.273437 c -0.148438 0 -0.265626 -0.132813 -0.265626 -0.300782 v -1.121093 c 0 -0.167969 0.117188 -0.300781 0.265626 -0.300781 z m 0 0"/>
    <path d="m 2.820312 3.988281 h 7.726563 c 0.238281 0 0.433594 0.164063 0.433594 0.371094 v 0.710937 c 0 0.203126 -0.195313 0.371094 -0.433594 0.371094 h -7.726563 c -0.238281 0 -0.433593 -0.167968 -0.433593 -0.371094 v -0.710937 c 0 -0.207031 0.195312 -0.371094 0.433593 -0.371094 z m 0 0"/>
    <path d="m 2.886719 7.332031 h 5.550781 c 0.242188 0 0.4375 0.164063 0.4375 0.371094 v 0.816406 c 0 0.203125 -0.195312 0.371094 -0.4375 0.371094 h -5.550781 c -0.238281 0 -0.433594 -0.167969 -0.433594 -0.371094 v -0.816406 c 0 -0.207031 0.195313 -0.371094 0.433594 -0.371094 z m 0 0"/>
    <path d="m 2.785156 10.589844 h 7.660156 c 0.238282 0 0.433594 0.167968 0.433594 0.371094 v 0.839843 c 0 0.203125 -0.195312 0.371094 -0.433594 0.371094 h -7.660156 c -0.238281 0 -0.433594 -0.167969 -0.433594 -0.371094 v -0.839843 c 0 -0.203126 0.195313 -0.371094 0.433594 -0.371094 z m 0 0"/>
</svg>
