<?xml version="1.0" encoding="UTF-8"?>
<svg height="128px" viewBox="0 0 128 128" width="128px" xmlns="http://www.w3.org/2000/svg" xmlns:xlink="http://www.w3.org/1999/xlink">
    <linearGradient id="a" gradientTransform="matrix(0.228851 0 0 0.281762 -7.150403 241.959957)" gradientUnits="userSpaceOnUse" x1="88.595886" x2="536.595886" y1="-449.394012" y2="-449.394012">
        <stop offset="0" stop-color="#77767b"/>
        <stop offset="0.0357143" stop-color="#c0bfbc"/>
        <stop offset="0.0713653" stop-color="#9a9996"/>
        <stop offset="0.928571" stop-color="#9a9996"/>
        <stop offset="0.964286" stop-color="#c0bfbc"/>
        <stop offset="1" stop-color="#77767b"/>
    </linearGradient>
    <clipPath id="b">
        <rect height="128" width="128"/>
    </clipPath>
    <clipPath id="c">
        <rect height="128" width="128"/>
    </clipPath>
    <filter id="d" height="100%" width="100%" x="0%" y="0%">
        <feColorMatrix in="SourceGraphic" type="matrix" values="0 0 0 0 1 0 0 0 0 1 0 0 0 0 1 0 0 0 1 0"/>
    </filter>
    <mask id="e">
        <g clip-path="url(#c)" filter="url(#d)">
            <g clip-path="url(#b)">
                <path d="m 20.449219 29.683594 h 87.878906 c 4.042969 0 7.320313 4.035156 7.320313 9.015625 v 67.621093 c 0 4.980469 -3.277344 9.015626 -7.320313 9.015626 h -87.878906 c -4.046875 0 -7.324219 -4.035157 -7.324219 -9.015626 v -67.621093 c 0 -4.980469 3.277344 -9.015625 7.324219 -9.015625 z m 0 0" fill="url(#a)"/>
                <path d="m 20.347656 12.957031 h 87.878906 c 4.042969 0 7.324219 4.035157 7.324219 9.015625 v 76.640625 c 0 4.976563 -3.28125 9.015625 -7.324219 9.015625 h -87.878906 c -4.042968 0 -7.324218 -4.039062 -7.324218 -9.015625 v -76.640625 c 0 -4.980468 3.28125 -9.015625 7.324218 -9.015625 z m 0 0" fill="#666666"/>
                <path d="m 29.039062 37.582031 h -7.296874 l 10.855468 -12.460937 l -1.535156 -2.949219 h 8.96875 l -10.449219 11.984375 h 2.457031 z m 12.585938 -10.09375 l -1.175781 -2.253906 l 8.941406 0.015625 c 1.210937 0 1.824219 0.253906 1.824219 0.753906 c 0 0.304688 -0.207032 0.683594 -0.621094 1.148438 l -7.402344 8.542968 c -1.113281 1.257813 -2.632812 1.886719 -4.550781 1.886719 h -2.941406 c -1.136719 0 -1.703125 -0.296875 -1.703125 -0.898437 c 0 -0.300782 0.167968 -0.628906 0.5 -0.988282 z m -1.582031 7.378907 l 5.96875 -6.886719 h -0.964844 l -5.984375 6.886719 z m 13.527343 2.714843 h -5.820312 c -1.207031 0 -1.808594 -0.253906 -1.808594 -0.769531 c 0 -0.296875 0.195313 -0.671875 0.585938 -1.117188 l 7.011718 -8.105468 l -1.234374 -2.355469 l 11.984374 0.015625 l -2.382812 2.730469 h -4.808594 l -5.984375 6.886719 h 0.964844 l 4.175781 -4.808594 h 3.859375 z m 20.769532 -6.609375 h -10.882813 l 1.914063 -2.191406 h 10.855468 z m 1.769531 6.609375 h -3.875 l 8.683594 -9.964843 l -1.222657 -2.367188 h 7.148438 z m 15.765625 -10.851562 l -2.367188 -4.558594 h 9 l -0.648437 1.757813 l 2.441406 -1.757813 h 4.960938 l -9.273438 6.738281 l -4.28125 8.671875 h -4.898437 l 1.160156 -2.28125 l -2.804688 2.28125 h -4.929687 l 10.824219 -8.671875 z m -72.527344 -9.886719" fill="#ffd816"/>
                <path d="m 29.601562 35.554688 h -7.296874 l 10.855468 -12.460938 l -1.539062 -2.949219 h 8.972656 l -10.449219 11.984375 h 2.457031 z m 12.585938 -10.09375 l -1.175781 -2.25 l 8.9375 0.011718 c 1.214843 0 1.824219 0.253906 1.824219 0.757813 c 0 0.300781 -0.207032 0.683593 -0.617188 1.148437 l -7.402344 8.539063 c -1.113281 1.261719 -2.632812 1.886719 -4.550781 1.886719 h -2.941406 c -1.136719 0 -1.703125 -0.296876 -1.703125 -0.898438 c 0 -0.296875 0.164062 -0.628906 0.496094 -0.988281 z m -1.582031 7.378906 l 5.96875 -6.886719 h -0.964844 l -5.984375 6.886719 z m 13.527343 2.714844 h -5.820312 c -1.207031 0 -1.808594 -0.253907 -1.808594 -0.769532 c 0 -0.296875 0.195313 -0.671875 0.585938 -1.117187 l 7.011718 -8.105469 l -1.238281 -2.351562 l 11.988281 0.011718 l -2.382812 2.730469 h -4.808594 l -5.988281 6.886719 h 0.964844 l 4.179687 -4.808594 h 3.859375 z m 20.769532 -6.609376 h -10.886719 l 1.917969 -2.191406 h 10.851562 z m 1.765625 6.609376 h -3.871094 l 8.683594 -9.964844 l -1.222657 -2.367188 h 7.144532 z m 15.769531 -10.847657 l -2.367188 -4.5625 h 9 l -0.648437 1.757813 l 2.441406 -1.757813 h 4.960938 l -9.273438 6.738281 l -4.28125 8.671876 h -4.898437 l 1.160156 -2.277344 l -2.804688 2.277344 h -4.929687 l 10.824219 -8.671876 z m -72.527344 -9.890625" fill="#ffff00"/>
                <path d="m 25.246094 6.078125 c 1.292968 0 2.339844 3.011719 2.339844 6.726563 c 0 3.714843 -1.046876 6.726562 -2.339844 6.726562 c -1.289063 0 -2.335938 -3.011719 -2.335938 -6.726562 c 0 -3.714844 1.046875 -6.726563 2.335938 -6.726563 z m 0 0" fill="#999999"/>
                <path d="m 74.160156 5.695312 c 1.292969 0 2.339844 3.011719 2.339844 6.726563 c 0 3.71875 -1.046875 6.730469 -2.339844 6.730469 c -1.289062 0 -2.335937 -3.011719 -2.335937 -6.730469 c 0 -3.714844 1.046875 -6.726563 2.335937 -6.726563 z m 0 0" fill="#999999"/>
                <path d="m 86.554688 5.449219 c 1.292968 0 2.339843 3.011719 2.339843 6.726562 c 0 3.71875 -1.046875 6.730469 -2.339843 6.730469 c -1.289063 0 -2.335938 -3.011719 -2.335938 -6.730469 c 0 -3.714843 1.046875 -6.726562 2.335938 -6.726562 z m 0 0" fill="#999999"/>
                <path d="m 100.210938 5.277344 c 1.292968 0 2.339843 3.011718 2.339843 6.726562 s -1.046875 6.726563 -2.339843 6.726563 c -1.289063 0 -2.335938 -3.011719 -2.335938 -6.726563 s 1.046875 -6.726562 2.335938 -6.726562 z m 0 0" fill="#999999"/>
                <path d="m 62.367188 5.644531 c 1.292968 0 2.339843 3.011719 2.339843 6.730469 c 0 3.714844 -1.046875 6.726562 -2.339843 6.726562 c -1.289063 0 -2.335938 -3.011718 -2.335938 -6.726562 c 0 -3.71875 1.046875 -6.730469 2.335938 -6.730469 z m 0 0" fill="#999999"/>
                <path d="m 50.277344 5.921875 c 1.289062 0 2.335937 3.011719 2.335937 6.726563 c 0 3.714843 -1.046875 6.726562 -2.335937 6.726562 c -1.292969 0 -2.339844 -3.011719 -2.339844 -6.726562 c 0 -3.714844 1.046875 -6.726563 2.339844 -6.726563 z m 0 0" fill="#999999"/>
                <path d="m 38.363281 5.613281 c 1.289063 0 2.335938 3.011719 2.335938 6.726563 s -1.046875 6.730468 -2.335938 6.730468 c -1.292969 0 -2.339843 -3.015624 -2.339843 -6.730468 s 1.046874 -6.726563 2.339843 -6.726563 z m 0 0" fill="#999999"/>
                <path d="m 34.609375 18.730469 c 0.023437 0 0.046875 0.082031 0.046875 0.183593 c 0 0.101563 -0.023438 0.1875 -0.046875 0.1875 c -0.027344 0 -0.046875 -0.085937 -0.046875 -0.1875 c 0 -0.101562 0.019531 -0.183593 0.046875 -0.183593 z m 0 0" fill="#999999"/>
                <path d="m 22.523438 41.027344 h 66.917968 c 0.820313 0 1.488282 1.085937 1.488282 2.425781 c 0 1.335937 -0.667969 2.421875 -1.488282 2.421875 h -66.917968 c -0.824219 0 -1.492188 -1.085938 -1.492188 -2.421875 c 0 -1.339844 0.667969 -2.425781 1.492188 -2.425781 z m 0 0" fill="#808080"/>
                <path d="m 22.105469 73.957031 h 47.015625 c 0.578125 0 1.046875 1.085938 1.046875 2.425781 c 0 1.335938 -0.46875 2.421876 -1.046875 2.421876 h -47.015625 c -0.582031 0 -1.050781 -1.085938 -1.050781 -2.421876 c 0 -1.339843 0.46875 -2.425781 1.050781 -2.425781 z m 0 0" fill="#808080"/>
                <path d="m 22.167969 91.269531 h 59.984375 c 0.738281 0 1.335937 1.085938 1.335937 2.421875 c 0 1.339844 -0.597656 2.425782 -1.335937 2.425782 h -59.984375 c -0.738281 0 -1.335938 -1.085938 -1.335938 -2.425782 c 0 -1.335937 0.597657 -2.421875 1.335938 -2.421875 z m 0 0" fill="#808080"/>
                <path d="m 22.578125 81.988281 h 64.769531 c 0.796875 0 1.441406 1.085938 1.441406 2.421875 c 0 1.339844 -0.644531 2.425782 -1.441406 2.425782 h -64.769531 c -0.796875 0 -1.445313 -1.085938 -1.445313 -2.425782 c 0 -1.335937 0.648438 -2.421875 1.445313 -2.421875 z m 0 0" fill="#808080"/>
                <path d="m 22.46875 64.679688 h 20.757812 c 0.789063 0 1.429688 1.085937 1.429688 2.425781 c 0 1.335937 -0.640625 2.421875 -1.429688 2.421875 h -20.757812 c -0.789062 0 -1.429688 -1.085938 -1.429688 -2.421875 c 0 -1.339844 0.640626 -2.425781 1.429688 -2.425781 z m 0 0" fill="#808080"/>
                <path d="m 22.167969 56.503906 h 54.949219 c 0.675781 0 1.222656 1.085938 1.222656 2.421875 c 0 1.339844 -0.546875 2.425781 -1.222656 2.425781 h -54.949219 c -0.675781 0 -1.226563 -1.085937 -1.226563 -2.425781 c 0 -1.335937 0.550782 -2.421875 1.226563 -2.421875 z m 0 0" fill="#808080"/>
                <path d="m 22.128906 48.535156 h 39.832032 c 0.648437 0 1.179687 1.085938 1.179687 2.421875 c 0 1.339844 -0.53125 2.425781 -1.179687 2.425781 h -39.832032 c -0.652344 0 -1.179687 -1.085937 -1.179687 -2.425781 c 0 -1.335937 0.527343 -2.421875 1.179687 -2.421875 z m 0 0" fill="#808080"/>
                <path d="m 25.820312 85.355469 c 1.292969 0 2.335938 0.039062 2.335938 0.085937 v 0.285156 c 0 0.046876 -1.042969 0.085938 -2.335938 0.085938 c -1.289062 0 -2.332031 -0.039062 -2.332031 -0.085938 v -0.285156 c 0 -0.046875 1.042969 -0.085937 2.332031 -0.085937 z m 0 0" fill="#808080"/>
                <path d="m 42.214844 92.753906 h 19.691406 c 4.046875 0 7.324219 0.039063 7.324219 0.085938 v 0.304687 c 0 0.050781 -3.277344 0.085938 -7.324219 0.085938 h -19.691406 c -4.046875 0 -7.324219 -0.035157 -7.324219 -0.085938 v -0.304687 c 0 -0.046875 3.277344 -0.085938 7.324219 -0.085938 z m 0 0" fill="#808080"/>
                <path d="m 115.617188 93.273438 h 7.898437 v 5.308593 h -7.898437 z m 0 0" fill="#808080"/>
                <path d="m 123.679688 22.289062 c 1.710937 0 3.101562 1.402344 3.101562 3.132813 v 70.035156 c 0 1.726563 -1.390625 3.128907 -3.101562 3.128907 c -1.714844 0 -3.101563 -1.402344 -3.101563 -3.128907 v -70.035156 c 0 -1.730469 1.386719 -3.132813 3.101563 -3.132813 z m 0 0" fill="#808080"/>
                <path d="m 109.453125 95.316406 l 1.910156 -1.953125" fill="#808080"/>
                <path d="m 111.386719 95.328125 l -2.863281 -0.007813" fill="#808080"/>
                <path d="m 117.390625 93.519531 l 3.480469 -3.210937 l 0.023437 3.136718 z m 0 0" fill="#808080"/>
            </g>
        </g>
    </mask>
    <mask id="f">
        <g filter="url(#d)">
            <rect fill-opacity="0.8" height="128" width="128"/>
        </g>
    </mask>
    <linearGradient id="g" gradientTransform="matrix(0 0.37 -0.98462 0 295.38501 -30.360001)" gradientUnits="userSpaceOnUse" x1="300" x2="428" y1="235" y2="235">
        <stop offset="0" stop-color="#f9f06b"/>
        <stop offset="1" stop-color="#f5c211"/>
    </linearGradient>
    <clipPath id="h">
        <rect height="128" width="128"/>
    </clipPath>
    <clipPath id="i">
        <rect height="128" width="128"/>
    </clipPath>
    <path d="m 20.449219 29.683594 h 87.878906 c 4.042969 0 7.320313 4.035156 7.320313 9.015625 v 67.621093 c 0 4.980469 -3.277344 9.015626 -7.320313 9.015626 h -87.878906 c -4.046875 0 -7.324219 -4.035157 -7.324219 -9.015626 v -67.621093 c 0 -4.980469 3.277344 -9.015625 7.324219 -9.015625 z m 0 0" fill="url(#a)"/>
    <path d="m 20.347656 12.957031 h 87.878906 c 4.042969 0 7.324219 4.035157 7.324219 9.015625 v 76.640625 c 0 4.976563 -3.28125 9.015625 -7.324219 9.015625 h -87.878906 c -4.042968 0 -7.324218 -4.039062 -7.324218 -9.015625 v -76.640625 c 0 -4.980468 3.28125 -9.015625 7.324218 -9.015625 z m 0 0" fill="#666666"/>
    <path d="m 29.039062 37.582031 h -7.296874 l 10.855468 -12.460937 l -1.535156 -2.949219 h 8.96875 l -10.449219 11.984375 h 2.457031 z m 12.585938 -10.09375 l -1.175781 -2.253906 l 8.941406 0.015625 c 1.210937 0 1.824219 0.253906 1.824219 0.753906 c 0 0.304688 -0.207032 0.683594 -0.621094 1.148438 l -7.402344 8.542968 c -1.113281 1.257813 -2.632812 1.886719 -4.550781 1.886719 h -2.941406 c -1.136719 0 -1.703125 -0.296875 -1.703125 -0.898437 c 0 -0.300782 0.167968 -0.628906 0.5 -0.988282 z m -1.582031 7.378907 l 5.96875 -6.886719 h -0.964844 l -5.984375 6.886719 z m 13.527343 2.714843 h -5.820312 c -1.207031 0 -1.808594 -0.253906 -1.808594 -0.769531 c 0 -0.296875 0.195313 -0.671875 0.585938 -1.117188 l 7.011718 -8.105468 l -1.234374 -2.355469 l 11.984374 0.015625 l -2.382812 2.730469 h -4.808594 l -5.984375 6.886719 h 0.964844 l 4.175781 -4.808594 h 3.859375 z m 20.769532 -6.609375 h -10.882813 l 1.914063 -2.191406 h 10.855468 z m 1.769531 6.609375 h -3.875 l 8.683594 -9.964843 l -1.222657 -2.367188 h 7.148438 z m 15.765625 -10.851562 l -2.367188 -4.558594 h 9 l -0.648437 1.757813 l 2.441406 -1.757813 h 4.960938 l -9.273438 6.738281 l -4.28125 8.671875 h -4.898437 l 1.160156 -2.28125 l -2.804688 2.28125 h -4.929687 l 10.824219 -8.671875 z m -72.527344 -9.886719" fill="#ffd816"/>
    <path d="m 29.601562 35.554688 h -7.296874 l 10.855468 -12.460938 l -1.539062 -2.949219 h 8.972656 l -10.449219 11.984375 h 2.457031 z m 12.585938 -10.09375 l -1.175781 -2.25 l 8.9375 0.011718 c 1.214843 0 1.824219 0.253906 1.824219 0.757813 c 0 0.300781 -0.207032 0.683593 -0.617188 1.148437 l -7.402344 8.539063 c -1.113281 1.261719 -2.632812 1.886719 -4.550781 1.886719 h -2.941406 c -1.136719 0 -1.703125 -0.296876 -1.703125 -0.898438 c 0 -0.296875 0.164062 -0.628906 0.496094 -0.988281 z m -1.582031 7.378906 l 5.96875 -6.886719 h -0.964844 l -5.984375 6.886719 z m 13.527343 2.714844 h -5.820312 c -1.207031 0 -1.808594 -0.253907 -1.808594 -0.769532 c 0 -0.296875 0.195313 -0.671875 0.585938 -1.117187 l 7.011718 -8.105469 l -1.238281 -2.351562 l 11.988281 0.011718 l -2.382812 2.730469 h -4.808594 l -5.988281 6.886719 h 0.964844 l 4.179687 -4.808594 h 3.859375 z m 20.769532 -6.609376 h -10.886719 l 1.917969 -2.191406 h 10.851562 z m 1.765625 6.609376 h -3.871094 l 8.683594 -9.964844 l -1.222657 -2.367188 h 7.144532 z m 15.769531 -10.847657 l -2.367188 -4.5625 h 9 l -0.648437 1.757813 l 2.441406 -1.757813 h 4.960938 l -9.273438 6.738281 l -4.28125 8.671876 h -4.898437 l 1.160156 -2.277344 l -2.804688 2.277344 h -4.929687 l 10.824219 -8.671876 z m -72.527344 -9.890625" fill="#ffff00"/>
    <path d="m 25.246094 6.078125 c 1.292968 0 2.339844 3.011719 2.339844 6.726563 c 0 3.714843 -1.046876 6.726562 -2.339844 6.726562 c -1.289063 0 -2.335938 -3.011719 -2.335938 -6.726562 c 0 -3.714844 1.046875 -6.726563 2.335938 -6.726563 z m 0 0" fill="#999999"/>
    <path d="m 74.160156 5.695312 c 1.292969 0 2.339844 3.011719 2.339844 6.726563 c 0 3.71875 -1.046875 6.730469 -2.339844 6.730469 c -1.289062 0 -2.335937 -3.011719 -2.335937 -6.730469 c 0 -3.714844 1.046875 -6.726563 2.335937 -6.726563 z m 0 0" fill="#999999"/>
    <path d="m 86.554688 5.449219 c 1.292968 0 2.339843 3.011719 2.339843 6.726562 c 0 3.71875 -1.046875 6.730469 -2.339843 6.730469 c -1.289063 0 -2.335938 -3.011719 -2.335938 -6.730469 c 0 -3.714843 1.046875 -6.726562 2.335938 -6.726562 z m 0 0" fill="#999999"/>
    <path d="m 100.210938 5.277344 c 1.292968 0 2.339843 3.011718 2.339843 6.726562 s -1.046875 6.726563 -2.339843 6.726563 c -1.289063 0 -2.335938 -3.011719 -2.335938 -6.726563 s 1.046875 -6.726562 2.335938 -6.726562 z m 0 0" fill="#999999"/>
    <path d="m 62.367188 5.644531 c 1.292968 0 2.339843 3.011719 2.339843 6.730469 c 0 3.714844 -1.046875 6.726562 -2.339843 6.726562 c -1.289063 0 -2.335938 -3.011718 -2.335938 -6.726562 c 0 -3.71875 1.046875 -6.730469 2.335938 -6.730469 z m 0 0" fill="#999999"/>
    <path d="m 50.277344 5.921875 c 1.289062 0 2.335937 3.011719 2.335937 6.726563 c 0 3.714843 -1.046875 6.726562 -2.335937 6.726562 c -1.292969 0 -2.339844 -3.011719 -2.339844 -6.726562 c 0 -3.714844 1.046875 -6.726563 2.339844 -6.726563 z m 0 0" fill="#999999"/>
    <path d="m 38.363281 5.613281 c 1.289063 0 2.335938 3.011719 2.335938 6.726563 s -1.046875 6.730468 -2.335938 6.730468 c -1.292969 0 -2.339843 -3.015624 -2.339843 -6.730468 s 1.046874 -6.726563 2.339843 -6.726563 z m 0 0" fill="#999999"/>
    <path d="m 34.609375 18.730469 c 0.023437 0 0.046875 0.082031 0.046875 0.183593 c 0 0.101563 -0.023438 0.1875 -0.046875 0.1875 c -0.027344 0 -0.046875 -0.085937 -0.046875 -0.1875 c 0 -0.101562 0.019531 -0.183593 0.046875 -0.183593 z m 0 0" fill="#999999"/>
    <g fill="#808080">
        <path d="m 22.523438 41.027344 h 66.917968 c 0.820313 0 1.488282 1.085937 1.488282 2.425781 c 0 1.335937 -0.667969 2.421875 -1.488282 2.421875 h -66.917968 c -0.824219 0 -1.492188 -1.085938 -1.492188 -2.421875 c 0 -1.339844 0.667969 -2.425781 1.492188 -2.425781 z m 0 0"/>
        <path d="m 22.105469 73.957031 h 47.015625 c 0.578125 0 1.046875 1.085938 1.046875 2.425781 c 0 1.335938 -0.46875 2.421876 -1.046875 2.421876 h -47.015625 c -0.582031 0 -1.050781 -1.085938 -1.050781 -2.421876 c 0 -1.339843 0.46875 -2.425781 1.050781 -2.425781 z m 0 0"/>
        <path d="m 22.167969 91.269531 h 59.984375 c 0.738281 0 1.335937 1.085938 1.335937 2.421875 c 0 1.339844 -0.597656 2.425782 -1.335937 2.425782 h -59.984375 c -0.738281 0 -1.335938 -1.085938 -1.335938 -2.425782 c 0 -1.335937 0.597657 -2.421875 1.335938 -2.421875 z m 0 0"/>
        <path d="m 22.578125 81.988281 h 64.769531 c 0.796875 0 1.441406 1.085938 1.441406 2.421875 c 0 1.339844 -0.644531 2.425782 -1.441406 2.425782 h -64.769531 c -0.796875 0 -1.445313 -1.085938 -1.445313 -2.425782 c 0 -1.335937 0.648438 -2.421875 1.445313 -2.421875 z m 0 0"/>
        <path d="m 22.46875 64.679688 h 20.757812 c 0.789063 0 1.429688 1.085937 1.429688 2.425781 c 0 1.335937 -0.640625 2.421875 -1.429688 2.421875 h -20.757812 c -0.789062 0 -1.429688 -1.085938 -1.429688 -2.421875 c 0 -1.339844 0.640626 -2.425781 1.429688 -2.425781 z m 0 0"/>
        <path d="m 22.167969 56.503906 h 54.949219 c 0.675781 0 1.222656 1.085938 1.222656 2.421875 c 0 1.339844 -0.546875 2.425781 -1.222656 2.425781 h -54.949219 c -0.675781 0 -1.226563 -1.085937 -1.226563 -2.425781 c 0 -1.335937 0.550782 -2.421875 1.226563 -2.421875 z m 0 0"/>
        <path d="m 22.128906 48.535156 h 39.832032 c 0.648437 0 1.179687 1.085938 1.179687 2.421875 c 0 1.339844 -0.53125 2.425781 -1.179687 2.425781 h -39.832032 c -0.652344 0 -1.179687 -1.085937 -1.179687 -2.425781 c 0 -1.335937 0.527343 -2.421875 1.179687 -2.421875 z m 0 0"/>
        <path d="m 25.820312 85.355469 c 1.292969 0 2.335938 0.039062 2.335938 0.085937 v 0.285156 c 0 0.046876 -1.042969 0.085938 -2.335938 0.085938 c -1.289062 0 -2.332031 -0.039062 -2.332031 -0.085938 v -0.285156 c 0 -0.046875 1.042969 -0.085937 2.332031 -0.085937 z m 0 0"/>
        <path d="m 42.214844 92.753906 h 19.691406 c 4.046875 0 7.324219 0.039063 7.324219 0.085938 v 0.304687 c 0 0.050781 -3.277344 0.085938 -7.324219 0.085938 h -19.691406 c -4.046875 0 -7.324219 -0.035157 -7.324219 -0.085938 v -0.304687 c 0 -0.046875 3.277344 -0.085938 7.324219 -0.085938 z m 0 0"/>
        <path d="m 115.617188 93.273438 h 7.898437 v 5.308593 h -7.898437 z m 0 0"/>
        <path d="m 123.679688 22.289062 c 1.710937 0 3.101562 1.402344 3.101562 3.132813 v 70.035156 c 0 1.726563 -1.390625 3.128907 -3.101562 3.128907 c -1.714844 0 -3.101563 -1.402344 -3.101563 -3.128907 v -70.035156 c 0 -1.730469 1.386719 -3.132813 3.101563 -3.132813 z m 0 0"/>
        <path d="m 109.453125 95.316406 l 1.910156 -1.953125"/>
        <path d="m 111.386719 95.328125 l -2.863281 -0.007813"/>
        <path d="m 117.390625 93.519531 l 3.480469 -3.210937 l 0.023437 3.136718 z m 0 0"/>
    </g>
    <g clip-path="url(#i)" mask="url(#e)">
        <g clip-path="url(#h)" mask="url(#f)">
            <path d="m 128 80.640625 v 47.359375 h -128 v -47.359375 z m 0 0" fill="url(#g)"/>
            <path d="m 13.308594 80.640625 l 47.355468 47.359375 h 21.214844 l -47.359375 -47.359375 z m 42.421875 0 l 47.363281 47.359375 h 21.214844 l -47.363282 -47.359375 z m 42.429687 0 l 29.839844 29.839844 v -21.210938 l -8.628906 -8.628906 z m -98.160156 7.90625 v 21.214844 l 18.238281 18.238281 h 21.214844 z m 0 0"/>
        </g>
    </g>
</svg>
